<svg xmlns="http://www.w3.org/2000/svg" width="340" height="200" viewBox="0 0 340 200" role="img" aria-labelledby="title desc">
  <title id="title">Public project repository code composition</title>
  <desc id="desc">Python 38.2 percent, Verilog 35.3 percent, MATLAB 20.8 percent, and PowerShell 5.7 percent, audited July 19, 2026.</desc>
  <defs>
    <clipPath id="stack-clip">
      <rect x="20" y="67" width="300" height="16" rx="8" />
    </clipPath>
  </defs>
  <rect x="0.5" y="0.5" width="339" height="199" rx="5" fill="#0d1117" stroke="#30363d" />
  <g font-family="-apple-system, BlinkMacSystemFont, 'Segoe UI', Helvetica, Arial, sans-serif">
    <text x="20" y="29" fill="#f0f6fc" font-size="16" font-weight="600">Public code composition</text>
    <text x="20" y="49" fill="#8b949e" font-size="11">Audited Jul 19, 2026 · normalized source bytes</text>

    <g clip-path="url(#stack-clip)">
      <rect x="20" y="67" width="114.6" height="16" fill="#3572A5" />
      <rect x="134.6" y="67" width="105.9" height="16" fill="#b2b7f8" />
      <rect x="240.5" y="67" width="62.4" height="16" fill="#e16737" />
      <rect x="302.9" y="67" width="17.1" height="16" fill="#2b7489" />
    </g>

    <circle cx="25" cy="111" r="5" fill="#3572A5" />
    <text x="37" y="115" fill="#c9d1d9" font-size="12">Python</text>
    <text x="142" y="115" fill="#8b949e" font-size="12" text-anchor="end">38.2%</text>

    <circle cx="183" cy="111" r="5" fill="#b2b7f8" />
    <text x="195" y="115" fill="#c9d1d9" font-size="12">Verilog</text>
    <text x="315" y="115" fill="#8b949e" font-size="12" text-anchor="end">35.3%</text>

    <circle cx="25" cy="141" r="5" fill="#e16737" />
    <text x="37" y="145" fill="#c9d1d9" font-size="12">MATLAB</text>
    <text x="142" y="145" fill="#8b949e" font-size="12" text-anchor="end">20.8%</text>

    <circle cx="183" cy="141" r="5" fill="#2b7489" />
    <text x="195" y="145" fill="#c9d1d9" font-size="12">PowerShell</text>
    <text x="315" y="145" fill="#8b949e" font-size="12" text-anchor="end">5.7%</text>

    <text x="20" y="177" fill="#8b949e" font-size="10.5">GitHub-detected code across public project repositories</text>
  </g>
</svg>
